<?xml version="1.0" encoding="UTF-8" standalone="no"?>
<!DOCTYPE svg PUBLIC "-//W3C//DTD SVG 1.1//EN"
 "http://www.w3.org/Graphics/SVG/1.1/DTD/svg11.dtd">
<!-- Generated by graphviz version 2.30.1 (20180420.1509)
 -->
<!-- Title: dag Pages: 1 -->
<svg width="762pt" height="1342pt"
 viewBox="0.00 0.00 762.00 1342.00" xmlns="http://www.w3.org/2000/svg" xmlns:xlink="http://www.w3.org/1999/xlink">
<g id="graph0" class="graph" transform="scale(1 1) rotate(0) translate(4 1338)">
<title>dag</title>
<polygon fill="white" stroke="white" points="-4,5 -4,-1338 759,-1338 759,5 -4,5"/>
<!-- buildrow -->
<g id="node1" class="node"><title>buildrow</title>
<polygon fill="none" stroke="black" points="754.5,-1333.5 209.5,-1333.5 209.5,-1160.5 754.5,-1160.5 754.5,-1333.5"/>
<text text-anchor="middle" x="482" y="-1318.3" font-family="Times,serif" font-size="14.00">BUILDROW</text>
<text text-anchor="middle" x="482" y="-1303.3" font-family="Times,serif" font-size="14.00">					l_returnflag,</text>
<text text-anchor="middle" x="482" y="-1288.3" font-family="Times,serif" font-size="14.00">					l_linestatus,</text>
<text text-anchor="middle" x="482" y="-1273.3" font-family="Times,serif" font-size="14.00">					sum(l_quantity) as sum_qty,</text>
<text text-anchor="middle" x="482" y="-1258.3" font-family="Times,serif" font-size="14.00">					sum(l_extendedprice) as sum_base_price,</text>
<text text-anchor="middle" x="482" y="-1243.3" font-family="Times,serif" font-size="14.00">					sum(l_extendedprice * (1 &#45; l_discount)) as sum_disc_price,</text>
<text text-anchor="middle" x="482" y="-1228.3" font-family="Times,serif" font-size="14.00">					sum(l_extendedprice * (1 &#45; l_discount) * (1 + l_tax)) as sum_charge,</text>
<text text-anchor="middle" x="482" y="-1213.3" font-family="Times,serif" font-size="14.00">					avg(l_quantity) as avg_qty,</text>
<text text-anchor="middle" x="482" y="-1198.3" font-family="Times,serif" font-size="14.00">					avg(l_extendedprice) as avg_price,</text>
<text text-anchor="middle" x="482" y="-1183.3" font-family="Times,serif" font-size="14.00">					avg(l_discount) as avg_disc,</text>
<text text-anchor="middle" x="482" y="-1168.3" font-family="Times,serif" font-size="14.00">					count(*) as count_order</text>
</g>
<!-- aggregation -->
<g id="node2" class="node"><title>aggregation</title>
<polygon fill="none" stroke="black" points="544.5,-429.5 -0.5,-429.5 -0.5,-286.5 544.5,-286.5 544.5,-429.5"/>
<text text-anchor="middle" x="272" y="-414.3" font-family="Times,serif" font-size="14.00">AGGREGATION</text>
<text text-anchor="middle" x="272" y="-399.3" font-family="Times,serif" font-size="14.00">					sum(l_quantity) as sum_qty,</text>
<text text-anchor="middle" x="272" y="-384.3" font-family="Times,serif" font-size="14.00">					sum(l_extendedprice) as sum_base_price,</text>
<text text-anchor="middle" x="272" y="-369.3" font-family="Times,serif" font-size="14.00">					sum(l_extendedprice * (1 &#45; l_discount)) as sum_disc_price,</text>
<text text-anchor="middle" x="272" y="-354.3" font-family="Times,serif" font-size="14.00">					sum(l_extendedprice * (1 &#45; l_discount) * (1 + l_tax)) as sum_charge,</text>
<text text-anchor="middle" x="272" y="-339.3" font-family="Times,serif" font-size="14.00">					avg(l_quantity) as avg_qty,</text>
<text text-anchor="middle" x="272" y="-324.3" font-family="Times,serif" font-size="14.00">					avg(l_extendedprice) as avg_price,</text>
<text text-anchor="middle" x="272" y="-309.3" font-family="Times,serif" font-size="14.00">					avg(l_discount) as avg_disc,</text>
<text text-anchor="middle" x="272" y="-294.3" font-family="Times,serif" font-size="14.00">					count(*) as count_order</text>
</g>
<!-- materialization -->
<g id="node6" class="node"><title>materialization</title>
<polygon fill="none" stroke="black" points="754.5,-655.5 209.5,-655.5 209.5,-482.5 754.5,-482.5 754.5,-655.5"/>
<text text-anchor="middle" x="482" y="-640.3" font-family="Times,serif" font-size="14.00">MATERIALIZATION</text>
<text text-anchor="middle" x="482" y="-625.3" font-family="Times,serif" font-size="14.00">					l_returnflag,</text>
<text text-anchor="middle" x="482" y="-610.3" font-family="Times,serif" font-size="14.00">					l_linestatus,</text>
<text text-anchor="middle" x="482" y="-595.3" font-family="Times,serif" font-size="14.00">					sum(l_quantity) as sum_qty,</text>
<text text-anchor="middle" x="482" y="-580.3" font-family="Times,serif" font-size="14.00">					sum(l_extendedprice) as sum_base_price,</text>
<text text-anchor="middle" x="482" y="-565.3" font-family="Times,serif" font-size="14.00">					sum(l_extendedprice * (1 &#45; l_discount)) as sum_disc_price,</text>
<text text-anchor="middle" x="482" y="-550.3" font-family="Times,serif" font-size="14.00">					sum(l_extendedprice * (1 &#45; l_discount) * (1 + l_tax)) as sum_charge,</text>
<text text-anchor="middle" x="482" y="-535.3" font-family="Times,serif" font-size="14.00">					avg(l_quantity) as avg_qty,</text>
<text text-anchor="middle" x="482" y="-520.3" font-family="Times,serif" font-size="14.00">					avg(l_extendedprice) as avg_price,</text>
<text text-anchor="middle" x="482" y="-505.3" font-family="Times,serif" font-size="14.00">					avg(l_discount) as avg_disc,</text>
<text text-anchor="middle" x="482" y="-490.3" font-family="Times,serif" font-size="14.00">					count(*) as count_order</text>
</g>
<!-- aggregation&#45;&gt;materialization -->
<g id="edge5" class="edge"><title>aggregation&#45;&gt;materialization</title>
<path fill="none" stroke="black" d="M343.096,-429.758C357.719,-444.311 373.325,-459.842 388.599,-475.043"/>
<polygon fill="black" stroke="black" points="386.507,-477.9 396.064,-482.474 391.445,-472.939 386.507,-477.9"/>
<text text-anchor="middle" x="413.5" y="-452.3" font-family="Times,serif" font-size="14.00" fill="darkgreen">all 8 agg cols</text>
</g>
<!-- group -->
<g id="node3" class="node"><title>group</title>
<polygon fill="none" stroke="black" points="620,-233.5 386,-233.5 386,-180.5 620,-180.5 620,-233.5"/>
<text text-anchor="middle" x="503" y="-218.3" font-family="Times,serif" font-size="14.00">GROUPBY</text>
<text text-anchor="middle" x="503" y="-203.3" font-family="Times,serif" font-size="14.00">					l_returnflag,</text>
<text text-anchor="middle" x="503" y="-188.3" font-family="Times,serif" font-size="14.00">					l_linestatus</text>
</g>
<!-- group&#45;&gt;aggregation -->
<g id="edge3" class="edge"><title>group&#45;&gt;aggregation</title>
<path fill="none" stroke="black" d="M460.587,-233.579C450.827,-239.559 440.52,-245.95 431,-252 416.53,-261.195 401.402,-270.971 386.475,-280.716"/>
<polygon fill="black" stroke="black" points="384.169,-278.041 377.716,-286.445 388.001,-283.9 384.169,-278.041"/>
<text text-anchor="middle" x="499" y="-256.3" font-family="Times,serif" font-size="14.00" fill="darkgreen">IN_GROUP LINEITEM</text>
</g>
<!-- group&#45;&gt;materialization -->
<g id="edge4" class="edge"><title>group&#45;&gt;materialization</title>
<path fill="none" stroke="black" d="M551.789,-233.558C557.9,-238.827 563.296,-244.959 567,-252 574.285,-265.848 617.391,-206.653 553,-430 548.867,-444.335 543.201,-458.925 536.857,-472.989"/>
<polygon fill="black" stroke="black" points="533.642,-471.603 532.6,-482.147 539.989,-474.554 533.642,-471.603"/>
<text text-anchor="middle" x="653.5" y="-354.3" font-family="Times,serif" font-size="14.00" fill="darkgreen">l_returnflag, l_linestatus</text>
</g>
<!-- order -->
<g id="node4" class="node"><title>order</title>
<polygon fill="none" stroke="black" points="754.5,-1107.5 209.5,-1107.5 209.5,-934.5 754.5,-934.5 754.5,-1107.5"/>
<text text-anchor="middle" x="482" y="-1092.3" font-family="Times,serif" font-size="14.00">ORDERBY</text>
<text text-anchor="middle" x="482" y="-1077.3" font-family="Times,serif" font-size="14.00">					l_returnflag,</text>
<text text-anchor="middle" x="482" y="-1062.3" font-family="Times,serif" font-size="14.00">					l_linestatus,</text>
<text text-anchor="middle" x="482" y="-1047.3" font-family="Times,serif" font-size="14.00">					sum(l_quantity) as sum_qty,</text>
<text text-anchor="middle" x="482" y="-1032.3" font-family="Times,serif" font-size="14.00">					sum(l_extendedprice) as sum_base_price,</text>
<text text-anchor="middle" x="482" y="-1017.3" font-family="Times,serif" font-size="14.00">					sum(l_extendedprice * (1 &#45; l_discount)) as sum_disc_price,</text>
<text text-anchor="middle" x="482" y="-1002.3" font-family="Times,serif" font-size="14.00">					sum(l_extendedprice * (1 &#45; l_discount) * (1 + l_tax)) as sum_charge,</text>
<text text-anchor="middle" x="482" y="-987.3" font-family="Times,serif" font-size="14.00">					avg(l_quantity) as avg_qty,</text>
<text text-anchor="middle" x="482" y="-972.3" font-family="Times,serif" font-size="14.00">					avg(l_extendedprice) as avg_price,</text>
<text text-anchor="middle" x="482" y="-957.3" font-family="Times,serif" font-size="14.00">					avg(l_discount) as avg_disc,</text>
<text text-anchor="middle" x="482" y="-942.3" font-family="Times,serif" font-size="14.00">					count(*) as count_order</text>
</g>
<!-- order&#45;&gt;buildrow -->
<g id="edge8" class="edge"><title>order&#45;&gt;buildrow</title>
<path fill="none" stroke="black" d="M482,-1107.64C482,-1121.56 482,-1136.05 482,-1150.18"/>
<polygon fill="black" stroke="black" points="478.5,-1150.4 482,-1160.4 485.5,-1150.4 478.5,-1150.4"/>
<text text-anchor="middle" x="510.5" y="-1130.3" font-family="Times,serif" font-size="14.00" fill="darkgreen">all 10 cols</text>
</g>
<!-- preoder -->
<g id="node5" class="node"><title>preoder</title>
<polygon fill="none" stroke="black" points="754.5,-881.5 209.5,-881.5 209.5,-708.5 754.5,-708.5 754.5,-881.5"/>
<text text-anchor="middle" x="482" y="-866.3" font-family="Times,serif" font-size="14.00">PREODER	</text>
<text text-anchor="middle" x="482" y="-851.3" font-family="Times,serif" font-size="14.00">					l_returnflag,</text>
<text text-anchor="middle" x="482" y="-836.3" font-family="Times,serif" font-size="14.00">					l_linestatus,</text>
<text text-anchor="middle" x="482" y="-821.3" font-family="Times,serif" font-size="14.00">					sum(l_quantity) as sum_qty,</text>
<text text-anchor="middle" x="482" y="-806.3" font-family="Times,serif" font-size="14.00">					sum(l_extendedprice) as sum_base_price,</text>
<text text-anchor="middle" x="482" y="-791.3" font-family="Times,serif" font-size="14.00">					sum(l_extendedprice * (1 &#45; l_discount)) as sum_disc_price,</text>
<text text-anchor="middle" x="482" y="-776.3" font-family="Times,serif" font-size="14.00">					sum(l_extendedprice * (1 &#45; l_discount) * (1 + l_tax)) as sum_charge,</text>
<text text-anchor="middle" x="482" y="-761.3" font-family="Times,serif" font-size="14.00">					avg(l_quantity) as avg_qty,</text>
<text text-anchor="middle" x="482" y="-746.3" font-family="Times,serif" font-size="14.00">					avg(l_extendedprice) as avg_price,</text>
<text text-anchor="middle" x="482" y="-731.3" font-family="Times,serif" font-size="14.00">					avg(l_discount) as avg_disc,</text>
<text text-anchor="middle" x="482" y="-716.3" font-family="Times,serif" font-size="14.00">					count(*) as count_order</text>
</g>
<!-- preoder&#45;&gt;order -->
<g id="edge7" class="edge"><title>preoder&#45;&gt;order</title>
<path fill="none" stroke="black" d="M482,-881.644C482,-895.558 482,-910.047 482,-924.185"/>
<polygon fill="black" stroke="black" points="478.5,-924.404 482,-934.404 485.5,-924.404 478.5,-924.404"/>
<text text-anchor="middle" x="510.5" y="-904.3" font-family="Times,serif" font-size="14.00" fill="darkgreen">all 10 cols</text>
</g>
<!-- materialization&#45;&gt;preoder -->
<g id="edge6" class="edge"><title>materialization&#45;&gt;preoder</title>
<path fill="none" stroke="black" d="M482,-655.644C482,-669.558 482,-684.047 482,-698.185"/>
<polygon fill="black" stroke="black" points="478.5,-698.404 482,-708.404 485.5,-698.404 478.5,-698.404"/>
<text text-anchor="middle" x="510.5" y="-678.3" font-family="Times,serif" font-size="14.00" fill="darkgreen">all 10 cols</text>
</g>
<!-- l_returnflag -->
<g id="node7" class="node"><title>l_returnflag</title>
<polygon fill="none" stroke="black" points="603,-128 403,-128 403,-90 603,-90 603,-128"/>
<text text-anchor="middle" x="503" y="-112.8" font-family="Times,serif" font-size="14.00">GETCOLUMN</text>
<text text-anchor="middle" x="503" y="-97.8" font-family="Times,serif" font-size="14.00">				l_returnflag</text>
</g>
<!-- l_returnflag&#45;&gt;group -->
<g id="edge2" class="edge"><title>l_returnflag&#45;&gt;group</title>
<path fill="none" stroke="black" d="M503,-128.057C503,-139.945 503,-155.913 503,-170.3"/>
<polygon fill="black" stroke="black" points="499.5,-170.416 503,-180.416 506.5,-170.416 499.5,-170.416"/>
<text text-anchor="middle" x="541" y="-150.3" font-family="Times,serif" font-size="14.00" fill="darkgreen">l_returnflag &#160;&#160;</text>
</g>
<!-- l_shipdate -->
<g id="node8" class="node"><title>l_shipdate</title>
<polygon fill="none" stroke="black" points="658,-38 348,-38 348,-0 658,-0 658,-38"/>
<text text-anchor="middle" x="503" y="-22.8" font-family="Times,serif" font-size="14.00">GETCOLUMN</text>
<text text-anchor="middle" x="503" y="-7.8" font-family="Times,serif" font-size="14.00">				l_shipdate &lt;= date &#39;1998&#45;09&#45;28&#39;</text>
</g>
<!-- l_shipdate&#45;&gt;l_returnflag -->
<g id="edge1" class="edge"><title>l_shipdate&#45;&gt;l_returnflag</title>
<path fill="none" stroke="black" d="M503,-38.2337C503,-50.1508 503,-65.9616 503,-79.5183"/>
<polygon fill="black" stroke="black" points="499.5,-79.7897 503,-89.7897 506.5,-79.7897 499.5,-79.7897"/>
<text text-anchor="middle" x="535.5" y="-60.3" font-family="Times,serif" font-size="14.00" fill="darkgreen">LINEITEM</text>
</g>
</g>
</svg>
