<?xml version="1.0" encoding="UTF-8" standalone="no"?>
<!DOCTYPE svg PUBLIC "-//W3C//DTD SVG 1.1//EN"
 "http://www.w3.org/Graphics/SVG/1.1/DTD/svg11.dtd">
<!-- Generated by graphviz version 2.30.1 (20180420.1509)
 -->
<!-- Title: DAG Pages: 1 -->
<svg width="9432pt" height="1214pt"
 viewBox="0.00 0.00 9432.00 1214.00" xmlns="http://www.w3.org/2000/svg" xmlns:xlink="http://www.w3.org/1999/xlink">
<g id="graph0" class="graph" transform="scale(1 1) rotate(0) translate(4 1210)">
<title>DAG</title>
<polygon fill="white" stroke="white" points="-4,5 -4,-1210 9429,-1210 9429,5 -4,5"/>
<!-- Node13 -->
<g id="node1" class="node"><title>Node13</title>
<polygon fill="none" stroke="black" points="7965.5,-1206 3748.5,-1206 3748.5,-1078 7965.5,-1078 7965.5,-1206"/>
<text text-anchor="middle" x="5857" y="-1190.8" font-family="Times,serif" font-size="14.00">13&#45;PHY_BUILDROW</text>
<text text-anchor="middle" x="5857" y="-1175.8" font-family="Times,serif" font-size="14.00">IP[]</text>
<text text-anchor="middle" x="5857" y="-1160.8" font-family="Times,serif" font-size="14.00">Condition[]</text>
<text text-anchor="middle" x="5857" y="-1145.8" font-family="Times,serif" font-size="14.00">Table[2:LINEITEM]</text>
<text text-anchor="middle" x="5857" y="-1130.8" font-family="Times,serif" font-size="14.00">Column{LINEITEM.7:L_RETURNFLAG[,] | LINEITEM.8:L_LINESTATUS[,] | LINEITEM.T_FUN_COUNT_STAR(9:AGGREGATE_COUNT(*))(COUNT_ORDER)[,] | LINEITEM.T_FUN_AVG(12:AGGREGATE_AVG_DISC)(AVG_DISC)[,] | LINEITEM.T_FUN_SUM(25:AGGREGATE_SUM_CHARGE)(SUM_CHARGE)[,] | LINEITEM.T_FUN_AVG(28:AGGREGATE_AVG_PRICE)(AVG_PRICE)[,] | LINEITEM.T_FUN_SUM(36:AGGREGATE_SUM_DISC_PRICE)(SUM_DISC_PRICE)[,] | LINEITEM.T_FUN_SUM(39:AGGREGATE_SUM_BASE_PRICE)(SUM_BASE_PRICE)[,] | LINEITEM.T_FUN_SUM(42:AGGREGATE_SUM_QTY)(SUM_QTY)[,] | LINEITEM.T_FUN_AVG(45:AGGREGATE_AVG_QTY)(AVG_QTY)[,]}</text>
<text text-anchor="middle" x="5857" y="-1115.8" font-family="Times,serif" font-size="14.00">Distinct:false</text>
<text text-anchor="middle" x="5857" y="-1100.8" font-family="Times,serif" font-size="14.00">Offset:0</text>
<text text-anchor="middle" x="5857" y="-1085.8" font-family="Times,serif" font-size="14.00">Count:1</text>
</g>
<!-- Node12 -->
<g id="node2" class="node"><title>Node12</title>
<polygon fill="none" stroke="black" points="7965.5,-1026 3748.5,-1026 3748.5,-928 7965.5,-928 7965.5,-1026"/>
<text text-anchor="middle" x="5857" y="-1010.8" font-family="Times,serif" font-size="14.00">12&#45;PHY_ORDER</text>
<text text-anchor="middle" x="5857" y="-995.8" font-family="Times,serif" font-size="14.00">IP[]</text>
<text text-anchor="middle" x="5857" y="-980.8" font-family="Times,serif" font-size="14.00">Condition[]</text>
<text text-anchor="middle" x="5857" y="-965.8" font-family="Times,serif" font-size="14.00">Table[2:LINEITEM]</text>
<text text-anchor="middle" x="5857" y="-950.8" font-family="Times,serif" font-size="14.00">Column{LINEITEM.7:L_RETURNFLAG[,] | LINEITEM.8:L_LINESTATUS[,] | LINEITEM.T_FUN_COUNT_STAR(9:AGGREGATE_COUNT(*))(COUNT_ORDER)[,] | LINEITEM.T_FUN_AVG(12:AGGREGATE_AVG_DISC)(AVG_DISC)[,] | LINEITEM.T_FUN_SUM(25:AGGREGATE_SUM_CHARGE)(SUM_CHARGE)[,] | LINEITEM.T_FUN_AVG(28:AGGREGATE_AVG_PRICE)(AVG_PRICE)[,] | LINEITEM.T_FUN_SUM(36:AGGREGATE_SUM_DISC_PRICE)(SUM_DISC_PRICE)[,] | LINEITEM.T_FUN_SUM(39:AGGREGATE_SUM_BASE_PRICE)(SUM_BASE_PRICE)[,] | LINEITEM.T_FUN_SUM(42:AGGREGATE_SUM_QTY)(SUM_QTY)[,] | LINEITEM.T_FUN_AVG(45:AGGREGATE_AVG_QTY)(AVG_QTY)[,]}</text>
<text text-anchor="middle" x="5857" y="-935.8" font-family="Times,serif" font-size="14.00">OrderBy[LINEITEM.7:L_RETURNFLAG↓ | LINEITEM.8:L_LINESTATUS↓]</text>
</g>
<!-- Node12&#45;&gt;Node13 -->
<g id="edge1" class="edge"><title>Node12&#45;&gt;Node13</title>
<path fill="none" stroke="black" d="M5857,-1026.02C5857,-1039.1 5857,-1053.56 5857,-1067.69"/>
<polygon fill="black" stroke="black" points="5853.5,-1067.9 5857,-1077.9 5860.5,-1067.9 5853.5,-1067.9"/>
<text text-anchor="middle" x="7640.5" y="-1048.3" font-family="Times,serif" font-size="14.00" fill="darkgreen">&lt;(0,0) | IN_KV , LINEITEM , LINEITEM.7:L_RETURNFLAG[,] | LINEITEM.8:L_LINESTATUS[,] | LINEITEM.9:AGGREGATE_COUNT(*)(COUNT_ORDER)[,] | LINEITEM.12:AGGREGATE_AVG_DISC(AVG_DISC)[,] | LINEITEM.25:AGGREGATE_SUM_CHARGE(SUM_CHARGE)[,] | LINEITEM.28:AGGREGATE_AVG_PRICE(AVG_PRICE)[,] | LINEITEM.36:AGGREGATE_SUM_DISC_PRICE(SUM_DISC_PRICE)[,] | LINEITEM.39:AGGREGATE_SUM_BASE_PRICE(SUM_BASE_PRICE)[,] | LINEITEM.42:AGGREGATE_SUM_QTY(SUM_QTY)[,] | LINEITEM.45:AGGREGATE_AVG_QTY(AVG_QTY)[,]&gt;</text>
</g>
<!-- Node11 -->
<g id="node3" class="node"><title>Node11</title>
<polygon fill="none" stroke="black" points="7587,-875.5 4127,-875.5 4127,-792.5 7587,-792.5 7587,-875.5"/>
<text text-anchor="middle" x="5857" y="-860.3" font-family="Times,serif" font-size="14.00">11&#45;PHY_PREORDER</text>
<text text-anchor="middle" x="5857" y="-845.3" font-family="Times,serif" font-size="14.00">IP[]</text>
<text text-anchor="middle" x="5857" y="-830.3" font-family="Times,serif" font-size="14.00">Condition[]</text>
<text text-anchor="middle" x="5857" y="-815.3" font-family="Times,serif" font-size="14.00">Table[2:LINEITEM]</text>
<text text-anchor="middle" x="5857" y="-800.3" font-family="Times,serif" font-size="14.00">Column{LINEITEM.7:L_RETURNFLAG[,] | LINEITEM.8:L_LINESTATUS[,] | LINEITEM.9:AGGREGATE_COUNT(*)(COUNT_ORDER)[,] | LINEITEM.12:AGGREGATE_AVG_DISC(AVG_DISC)[,] | LINEITEM.25:AGGREGATE_SUM_CHARGE(SUM_CHARGE)[,] | LINEITEM.28:AGGREGATE_AVG_PRICE(AVG_PRICE)[,] | LINEITEM.36:AGGREGATE_SUM_DISC_PRICE(SUM_DISC_PRICE)[,] | LINEITEM.39:AGGREGATE_SUM_BASE_PRICE(SUM_BASE_PRICE)[,] | LINEITEM.42:AGGREGATE_SUM_QTY(SUM_QTY)[,] | LINEITEM.45:AGGREGATE_AVG_QTY(AVG_QTY)[,]}</text>
</g>
<!-- Node11&#45;&gt;Node12 -->
<g id="edge2" class="edge"><title>Node11&#45;&gt;Node12</title>
<path fill="none" stroke="black" d="M5857,-875.783C5857,-888.873 5857,-903.635 5857,-917.726"/>
<polygon fill="black" stroke="black" points="5853.5,-917.833 5857,-927.833 5860.5,-917.833 5853.5,-917.833"/>
<text text-anchor="middle" x="7640.5" y="-898.3" font-family="Times,serif" font-size="14.00" fill="darkgreen">&lt;(0,0) | IN_KV , LINEITEM , LINEITEM.7:L_RETURNFLAG[,] | LINEITEM.8:L_LINESTATUS[,] | LINEITEM.9:AGGREGATE_COUNT(*)(COUNT_ORDER)[,] | LINEITEM.12:AGGREGATE_AVG_DISC(AVG_DISC)[,] | LINEITEM.25:AGGREGATE_SUM_CHARGE(SUM_CHARGE)[,] | LINEITEM.28:AGGREGATE_AVG_PRICE(AVG_PRICE)[,] | LINEITEM.36:AGGREGATE_SUM_DISC_PRICE(SUM_DISC_PRICE)[,] | LINEITEM.39:AGGREGATE_SUM_BASE_PRICE(SUM_BASE_PRICE)[,] | LINEITEM.42:AGGREGATE_SUM_QTY(SUM_QTY)[,] | LINEITEM.45:AGGREGATE_AVG_QTY(AVG_QTY)[,]&gt;</text>
</g>
<!-- Node1 -->
<g id="node4" class="node"><title>Node1</title>
<polygon fill="none" stroke="black" points="4498,-83.5 4098,-83.5 4098,-0.5 4498,-0.5 4498,-83.5"/>
<text text-anchor="middle" x="4298" y="-68.3" font-family="Times,serif" font-size="14.00">1&#45;PHY_GETCOLUMN</text>
<text text-anchor="middle" x="4298" y="-53.3" font-family="Times,serif" font-size="14.00">IP[]</text>
<text text-anchor="middle" x="4298" y="-38.3" font-family="Times,serif" font-size="14.00">Condition[LINEITEM.5:L_SHIPDATE &lt;= &#39;1998&#45;09&#45;28(906912000)&#39;]</text>
<text text-anchor="middle" x="4298" y="-23.3" font-family="Times,serif" font-size="14.00">Table[2:LINEITEM]</text>
<text text-anchor="middle" x="4298" y="-8.3" font-family="Times,serif" font-size="14.00">Column{LINEITEM.5:L_SHIPDATE[,]}</text>
</g>
<!-- Node9 -->
<g id="node12" class="node"><title>Node9</title>
<polygon fill="none" stroke="black" points="3537.5,-321.5 3280.5,-321.5 3280.5,-238.5 3537.5,-238.5 3537.5,-321.5"/>
<text text-anchor="middle" x="3409" y="-306.3" font-family="Times,serif" font-size="14.00">9&#45;PHY_GETCOLUMN</text>
<text text-anchor="middle" x="3409" y="-291.3" font-family="Times,serif" font-size="14.00">IP[]</text>
<text text-anchor="middle" x="3409" y="-276.3" font-family="Times,serif" font-size="14.00">Condition[]</text>
<text text-anchor="middle" x="3409" y="-261.3" font-family="Times,serif" font-size="14.00">Table[2:LINEITEM]</text>
<text text-anchor="middle" x="3409" y="-246.3" font-family="Times,serif" font-size="14.00">Column{LINEITEM.41:L_QUANTITY[,]}</text>
</g>
<!-- Node1&#45;&gt;Node9 -->
<g id="edge3" class="edge"><title>Node1&#45;&gt;Node9</title>
<path fill="none" stroke="black" d="M4097.94,-45.6123C3924.1,-50.4775 3687.07,-64.1178 3601,-102 3537.07,-130.138 3480.55,-188.518 3445.67,-230.546"/>
<polygon fill="black" stroke="black" points="3442.82,-228.5 3439.2,-238.456 3448.24,-232.931 3442.82,-228.5"/>
<text text-anchor="middle" x="3691.5" y="-106.3" font-family="Times,serif" font-size="14.00" fill="darkgreen">&lt;(0,0) | IN_KV , LINEITEM , &gt;</text>
</g>
<!-- Node8 -->
<g id="node11" class="node"><title>Node8</title>
<polygon fill="none" stroke="black" points="3885.5,-438.5 3670.5,-438.5 3670.5,-355.5 3885.5,-355.5 3885.5,-438.5"/>
<text text-anchor="middle" x="3778" y="-423.3" font-family="Times,serif" font-size="14.00">8&#45;PHY_GETCOLUMN</text>
<text text-anchor="middle" x="3778" y="-408.3" font-family="Times,serif" font-size="14.00">IP[]</text>
<text text-anchor="middle" x="3778" y="-393.3" font-family="Times,serif" font-size="14.00">Condition[]</text>
<text text-anchor="middle" x="3778" y="-378.3" font-family="Times,serif" font-size="14.00">Table[2:LINEITEM]</text>
<text text-anchor="middle" x="3778" y="-363.3" font-family="Times,serif" font-size="14.00">Column{LINEITEM.24:L_TAX[,]}</text>
</g>
<!-- Node1&#45;&gt;Node8 -->
<g id="edge4" class="edge"><title>Node1&#45;&gt;Node8</title>
<path fill="none" stroke="black" d="M4097.95,-60.1737C3987.64,-73.8301 3865.4,-97.2663 3827,-136 3772.39,-191.083 3768.51,-286.623 3772.19,-345.281"/>
<polygon fill="black" stroke="black" points="3768.71,-345.711 3772.92,-355.432 3775.69,-345.205 3768.71,-345.711"/>
<text text-anchor="middle" x="3917.5" y="-174.3" font-family="Times,serif" font-size="14.00" fill="darkgreen">&lt;(0,0) | IN_KV , LINEITEM , &gt;</text>
</g>
<!-- Node7 -->
<g id="node10" class="node"><title>Node7</title>
<polygon fill="none" stroke="black" points="4128,-321.5 3830,-321.5 3830,-238.5 4128,-238.5 4128,-321.5"/>
<text text-anchor="middle" x="3979" y="-306.3" font-family="Times,serif" font-size="14.00">7&#45;PHY_GETCOLUMN</text>
<text text-anchor="middle" x="3979" y="-291.3" font-family="Times,serif" font-size="14.00">IP[]</text>
<text text-anchor="middle" x="3979" y="-276.3" font-family="Times,serif" font-size="14.00">Condition[]</text>
<text text-anchor="middle" x="3979" y="-261.3" font-family="Times,serif" font-size="14.00">Table[2:LINEITEM]</text>
<text text-anchor="middle" x="3979" y="-246.3" font-family="Times,serif" font-size="14.00">Column{LINEITEM.16:L_EXTENDEDPRICE[,]}</text>
</g>
<!-- Node1&#45;&gt;Node7 -->
<g id="edge5" class="edge"><title>Node1&#45;&gt;Node7</title>
<path fill="none" stroke="black" d="M4144.43,-83.5266C4133.39,-88.958 4122.77,-95.0877 4113,-102 4066.05,-135.217 4028.31,-189.845 4004.99,-229.639"/>
<polygon fill="black" stroke="black" points="4001.9,-227.985 3999.95,-238.398 4007.97,-231.477 4001.9,-227.985"/>
<text text-anchor="middle" x="4203.5" y="-106.3" font-family="Times,serif" font-size="14.00" fill="darkgreen">&lt;(0,0) | IN_KV , LINEITEM , &gt;</text>
</g>
<!-- Node6 -->
<g id="node9" class="node"><title>Node6</title>
<polygon fill="none" stroke="black" points="4426,-321.5 4170,-321.5 4170,-238.5 4426,-238.5 4426,-321.5"/>
<text text-anchor="middle" x="4298" y="-306.3" font-family="Times,serif" font-size="14.00">6&#45;PHY_GETCOLUMN</text>
<text text-anchor="middle" x="4298" y="-291.3" font-family="Times,serif" font-size="14.00">IP[]</text>
<text text-anchor="middle" x="4298" y="-276.3" font-family="Times,serif" font-size="14.00">Condition[]</text>
<text text-anchor="middle" x="4298" y="-261.3" font-family="Times,serif" font-size="14.00">Table[2:LINEITEM]</text>
<text text-anchor="middle" x="4298" y="-246.3" font-family="Times,serif" font-size="14.00">Column{LINEITEM.11:L_DISCOUNT[,]}</text>
</g>
<!-- Node1&#45;&gt;Node6 -->
<g id="edge6" class="edge"><title>Node1&#45;&gt;Node6</title>
<path fill="none" stroke="black" d="M4298,-83.5698C4298,-123.588 4298,-184.88 4298,-228.135"/>
<polygon fill="black" stroke="black" points="4294.5,-228.17 4298,-238.17 4301.5,-228.17 4294.5,-228.17"/>
<text text-anchor="middle" x="4388.5" y="-106.3" font-family="Times,serif" font-size="14.00" fill="darkgreen">&lt;(0,0) | IN_KV , LINEITEM , &gt;</text>
</g>
<!-- Node2 -->
<g id="node5" class="node"><title>Node2</title>
<polygon fill="none" stroke="black" points="7586,-453.5 4614,-453.5 4614,-340.5 7586,-340.5 7586,-453.5"/>
<text text-anchor="middle" x="6100" y="-438.3" font-family="Times,serif" font-size="14.00">2&#45;PHY_GROUP</text>
<text text-anchor="middle" x="6100" y="-423.3" font-family="Times,serif" font-size="14.00">IP[]</text>
<text text-anchor="middle" x="6100" y="-408.3" font-family="Times,serif" font-size="14.00">Condition[]</text>
<text text-anchor="middle" x="6100" y="-393.3" font-family="Times,serif" font-size="14.00">Table[2:LINEITEM]</text>
<text text-anchor="middle" x="6100" y="-378.3" font-family="Times,serif" font-size="14.00">Column{LINEITEM.7:L_RETURNFLAG[,] | LINEITEM.8:L_LINESTATUS[,]}</text>
<text text-anchor="middle" x="6100" y="-363.3" font-family="Times,serif" font-size="14.00">GroupBy[LINEITEM.7:L_RETURNFLAG | LINEITEM.8:L_LINESTATUS]</text>
<text text-anchor="middle" x="6100" y="-348.3" font-family="Times,serif" font-size="14.00">AggColumn[LINEITEM.9:AGGREGATE_COUNT(*)(COUNT_ORDER) | LINEITEM.12:AGGREGATE_AVG_DISC(AVG_DISC) | LINEITEM.25:AGGREGATE_SUM_CHARGE(SUM_CHARGE) | LINEITEM.28:AGGREGATE_AVG_PRICE(AVG_PRICE) | LINEITEM.36:AGGREGATE_SUM_DISC_PRICE(SUM_DISC_PRICE) | LINEITEM.39:AGGREGATE_SUM_BASE_PRICE(SUM_BASE_PRICE) | LINEITEM.42:AGGREGATE_SUM_QTY(SUM_QTY) | LINEITEM.45:AGGREGATE_AVG_QTY(AVG_QTY)]</text>
</g>
<!-- Node1&#45;&gt;Node2 -->
<g id="edge7" class="edge"><title>Node1&#45;&gt;Node2</title>
<path fill="none" stroke="black" d="M4428.15,-83.6268C4446.61,-89.6454 4465.32,-95.8831 4483,-102 4624.68,-151.012 4655.4,-176.937 4799,-220 4993.36,-278.284 5043.55,-290.519 5244,-322 5283.48,-328.2 5324.07,-333.913 5365.11,-339.173"/>
<polygon fill="black" stroke="black" points="5364.91,-342.675 5375.27,-340.465 5365.79,-335.731 5364.91,-342.675"/>
<text text-anchor="middle" x="4889.5" y="-174.3" font-family="Times,serif" font-size="14.00" fill="darkgreen">&lt;(0,0) | IN_KV , LINEITEM , &gt;</text>
</g>
<!-- Node4 -->
<g id="node7" class="node"><title>Node4</title>
<polygon fill="none" stroke="black" points="5252.5,-219.5 4989.5,-219.5 4989.5,-136.5 5252.5,-136.5 5252.5,-219.5"/>
<text text-anchor="middle" x="5121" y="-204.3" font-family="Times,serif" font-size="14.00">4&#45;PHY_GETCOLUMN</text>
<text text-anchor="middle" x="5121" y="-189.3" font-family="Times,serif" font-size="14.00">IP[]</text>
<text text-anchor="middle" x="5121" y="-174.3" font-family="Times,serif" font-size="14.00">Condition[]</text>
<text text-anchor="middle" x="5121" y="-159.3" font-family="Times,serif" font-size="14.00">Table[2:LINEITEM]</text>
<text text-anchor="middle" x="5121" y="-144.3" font-family="Times,serif" font-size="14.00">Column{LINEITEM.8:L_LINESTATUS[,]}</text>
</g>
<!-- Node1&#45;&gt;Node4 -->
<g id="edge8" class="edge"><title>Node1&#45;&gt;Node4</title>
<path fill="none" stroke="black" d="M4498.01,-75.5659C4646.98,-99.8201 4846.72,-132.342 4979.43,-153.95"/>
<polygon fill="black" stroke="black" points="4979.23,-157.463 4989.66,-155.616 4980.36,-150.554 4979.23,-157.463"/>
<text text-anchor="middle" x="4825.5" y="-106.3" font-family="Times,serif" font-size="14.00" fill="darkgreen">&lt;(0,0) | IN_KV , LINEITEM , &gt;</text>
</g>
<!-- Node3 -->
<g id="node6" class="node"><title>Node3</title>
<polygon fill="none" stroke="black" points="5799,-219.5 5529,-219.5 5529,-136.5 5799,-136.5 5799,-219.5"/>
<text text-anchor="middle" x="5664" y="-204.3" font-family="Times,serif" font-size="14.00">3&#45;PHY_GETCOLUMN</text>
<text text-anchor="middle" x="5664" y="-189.3" font-family="Times,serif" font-size="14.00">IP[]</text>
<text text-anchor="middle" x="5664" y="-174.3" font-family="Times,serif" font-size="14.00">Condition[]</text>
<text text-anchor="middle" x="5664" y="-159.3" font-family="Times,serif" font-size="14.00">Table[2:LINEITEM]</text>
<text text-anchor="middle" x="5664" y="-144.3" font-family="Times,serif" font-size="14.00">Column{LINEITEM.7:L_RETURNFLAG[,]}</text>
</g>
<!-- Node1&#45;&gt;Node3 -->
<g id="edge9" class="edge"><title>Node1&#45;&gt;Node3</title>
<path fill="none" stroke="black" d="M4498.31,-61.7541C4620.23,-73.2301 4779.11,-88.2942 4920,-102 5071.59,-116.747 5109.46,-120.737 5261,-136 5346.38,-144.6 5441.93,-154.316 5518.55,-162.131"/>
<polygon fill="black" stroke="black" points="5518.45,-165.639 5528.75,-163.172 5519.16,-158.675 5518.45,-165.639"/>
<text text-anchor="middle" x="5170.5" y="-106.3" font-family="Times,serif" font-size="14.00" fill="darkgreen">&lt;(0,0) | IN_KV , LINEITEM , &gt;</text>
</g>
<!-- Node10 -->
<g id="node13" class="node"><title>Node10</title>
<polygon fill="none" stroke="black" points="7965.5,-739.5 3748.5,-739.5 3748.5,-656.5 7965.5,-656.5 7965.5,-739.5"/>
<text text-anchor="middle" x="5857" y="-724.3" font-family="Times,serif" font-size="14.00">10&#45;PHY_MATERIALIZATION</text>
<text text-anchor="middle" x="5857" y="-709.3" font-family="Times,serif" font-size="14.00">IP[]</text>
<text text-anchor="middle" x="5857" y="-694.3" font-family="Times,serif" font-size="14.00">Condition[]</text>
<text text-anchor="middle" x="5857" y="-679.3" font-family="Times,serif" font-size="14.00">Table[2:LINEITEM]</text>
<text text-anchor="middle" x="5857" y="-664.3" font-family="Times,serif" font-size="14.00">Column{LINEITEM.7:L_RETURNFLAG[,] | LINEITEM.8:L_LINESTATUS[,] | LINEITEM.T_FUN_COUNT_STAR(9:AGGREGATE_COUNT(*))(COUNT_ORDER)[,] | LINEITEM.T_FUN_AVG(12:AGGREGATE_AVG_DISC)(AVG_DISC)[,] | LINEITEM.T_FUN_SUM(25:AGGREGATE_SUM_CHARGE)(SUM_CHARGE)[,] | LINEITEM.T_FUN_AVG(28:AGGREGATE_AVG_PRICE)(AVG_PRICE)[,] | LINEITEM.T_FUN_SUM(36:AGGREGATE_SUM_DISC_PRICE)(SUM_DISC_PRICE)[,] | LINEITEM.T_FUN_SUM(39:AGGREGATE_SUM_BASE_PRICE)(SUM_BASE_PRICE)[,] | LINEITEM.T_FUN_SUM(42:AGGREGATE_SUM_QTY)(SUM_QTY)[,] | LINEITEM.T_FUN_AVG(45:AGGREGATE_AVG_QTY)(AVG_QTY)[,]}</text>
</g>
<!-- Node2&#45;&gt;Node10 -->
<g id="edge10" class="edge"><title>Node2&#45;&gt;Node10</title>
<path fill="none" stroke="black" d="M7396.43,-453.534C7489.82,-467.329 7556.5,-484.537 7579,-506 7621.69,-546.72 7634,-595.581 7593,-638 7586.96,-644.252 7567.91,-649.856 7538.25,-654.878"/>
<polygon fill="black" stroke="black" points="7537.57,-651.443 7528.25,-656.489 7538.68,-658.354 7537.57,-651.443"/>
<text text-anchor="middle" x="7907" y="-551.3" font-family="Times,serif" font-size="14.00" fill="darkgreen">&lt;(0,0) | IN_KV , LINEITEM , LINEITEM.7:L_RETURNFLAG[,] | LINEITEM.8:L_LINESTATUS[,]&gt;</text>
</g>
<!-- Node5 -->
<g id="node8" class="node"><title>Node5</title>
<polygon fill="none" stroke="black" points="7570.5,-604 -0.5,-604 -0.5,-506 7570.5,-506 7570.5,-604"/>
<text text-anchor="middle" x="3785" y="-588.8" font-family="Times,serif" font-size="14.00">5&#45;PHY_AGGREGATE</text>
<text text-anchor="middle" x="3785" y="-573.8" font-family="Times,serif" font-size="14.00">IP[]</text>
<text text-anchor="middle" x="3785" y="-558.8" font-family="Times,serif" font-size="14.00">Condition[]</text>
<text text-anchor="middle" x="3785" y="-543.8" font-family="Times,serif" font-size="14.00">Table[2:LINEITEM]</text>
<text text-anchor="middle" x="3785" y="-528.8" font-family="Times,serif" font-size="14.00">Column{LINEITEM.9:AGGREGATE_COUNT(*)(COUNT_ORDER)[,] | LINEITEM.11:L_DISCOUNT[,] | LINEITEM.12:AGGREGATE_AVG_DISC(AVG_DISC)[,] | LINEITEM.16:L_EXTENDEDPRICE[,] | LINEITEM.24:L_TAX[,] | LINEITEM.25:AGGREGATE_SUM_CHARGE(SUM_CHARGE)[,] | LINEITEM.28:AGGREGATE_AVG_PRICE(AVG_PRICE)[,] | LINEITEM.36:AGGREGATE_SUM_DISC_PRICE(SUM_DISC_PRICE)[,] | LINEITEM.39:AGGREGATE_SUM_BASE_PRICE(SUM_BASE_PRICE)[,] | LINEITEM.41:L_QUANTITY[,] | LINEITEM.42:AGGREGATE_SUM_QTY(SUM_QTY)[,] | LINEITEM.45:AGGREGATE_AVG_QTY(AVG_QTY)[,]}</text>
<text text-anchor="middle" x="3785" y="-513.8" font-family="Times,serif" font-size="14.00">Agg_column[LINEITEM.9:AGGREGATE_COUNT(*)(COUNT_ORDER) | LINEITEM.9:AGGREGATE_COUNT(*)(COUNT_ORDER){} | LINEITEM.12:AGGREGATE_AVG_DISC(AVG_DISC) | LINEITEM.12:AGGREGATE_AVG_DISC(AVG_DISC){LINEITEM.11:L_DISCOUNT} | LINEITEM.25:AGGREGATE_SUM_CHARGE(SUM_CHARGE) | LINEITEM.25:AGGREGATE_SUM_CHARGE(SUM_CHARGE){LINEITEM.16:L_EXTENDEDPRICE * 1 &#45; LINEITEM.11:L_DISCOUNT * 1 + LINEITEM.24:L_TAX} | LINEITEM.28:AGGREGATE_AVG_PRICE(AVG_PRICE) | LINEITEM.28:AGGREGATE_AVG_PRICE(AVG_PRICE){LINEITEM.16:L_EXTENDEDPRICE} | LINEITEM.36:AGGREGATE_SUM_DISC_PRICE(SUM_DISC_PRICE) | LINEITEM.36:AGGREGATE_SUM_DISC_PRICE(SUM_DISC_PRICE){LINEITEM.16:L_EXTENDEDPRICE * 1 &#45; LINEITEM.11:L_DISCOUNT} | LINEITEM.39:AGGREGATE_SUM_BASE_PRICE(SUM_BASE_PRICE) | LINEITEM.39:AGGREGATE_SUM_BASE_PRICE(SUM_BASE_PRICE){LINEITEM.16:L_EXTENDEDPRICE} | LINEITEM.42:AGGREGATE_SUM_QTY(SUM_QTY) | LINEITEM.42:AGGREGATE_SUM_QTY(SUM_QTY){LINEITEM.41:L_QUANTITY} | LINEITEM.45:AGGREGATE_AVG_QTY(AVG_QTY){LINEITEM.41:L_QUANTITY}]</text>
</g>
<!-- Node2&#45;&gt;Node5 -->
<g id="edge11" class="edge"><title>Node2&#45;&gt;Node5</title>
<path fill="none" stroke="black" d="M5276.08,-453.521C5025.08,-470.436 4751.19,-488.891 4507.44,-505.317"/>
<polygon fill="black" stroke="black" points="4507.06,-501.835 4497.32,-505.999 4507.53,-508.819 4507.06,-501.835"/>
<text text-anchor="middle" x="5190" y="-476.3" font-family="Times,serif" font-size="14.00" fill="darkgreen">&lt;(0,0) | IN_GROUP , &#160;, LINEITEM.9:AGGREGATE_COUNT(*)(COUNT_ORDER)[,]&gt;</text>
</g>
<!-- Node3&#45;&gt;Node2 -->
<g id="edge12" class="edge"><title>Node3&#45;&gt;Node2</title>
<path fill="none" stroke="black" d="M5745.5,-219.561C5811.34,-252.332 5904.98,-298.938 5979.49,-336.021"/>
<polygon fill="black" stroke="black" points="5977.97,-339.172 5988.48,-340.495 5981.08,-332.905 5977.97,-339.172"/>
<text text-anchor="middle" x="6103.5" y="-276.3" font-family="Times,serif" font-size="14.00" fill="darkgreen">&lt;(0,0) | IN_KV , &#160;, LINEITEM.7:L_RETURNFLAG[,]&gt;</text>
</g>
<!-- Node4&#45;&gt;Node2 -->
<g id="edge13" class="edge"><title>Node4&#45;&gt;Node2</title>
<path fill="none" stroke="black" d="M5205.86,-219.614C5278.16,-252.449 5385.66,-297.159 5484,-322 5507.62,-327.967 5531.88,-333.458 5556.48,-338.51"/>
<polygon fill="black" stroke="black" points="5555.8,-341.942 5566.3,-340.498 5557.19,-335.082 5555.8,-341.942"/>
<text text-anchor="middle" x="5636.5" y="-276.3" font-family="Times,serif" font-size="14.00" fill="darkgreen">&lt;(0,0) | IN_KV , &#160;, LINEITEM.8:L_LINESTATUS[,]&gt;</text>
</g>
<!-- Node5&#45;&gt;Node10 -->
<g id="edge14" class="edge"><title>Node5&#45;&gt;Node10</title>
<path fill="none" stroke="black" d="M4120.13,-604.031C4219.97,-616.855 4329.75,-629.495 4431,-638 4510.34,-644.664 4592.22,-650.585 4674.77,-655.844"/>
<polygon fill="black" stroke="black" points="4674.63,-659.343 4684.84,-656.482 4675.08,-652.357 4674.63,-659.343"/>
<text text-anchor="middle" x="6012" y="-626.3" font-family="Times,serif" font-size="14.00" fill="darkgreen">&lt;(0,0) | IN_KV , LINEITEM , LINEITEM.9:AGGREGATE_COUNT(*)(COUNT_ORDER)[,] | LINEITEM.12:AGGREGATE_AVG_DISC(AVG_DISC)[,] | LINEITEM.25:AGGREGATE_SUM_CHARGE(SUM_CHARGE)[,] | LINEITEM.28:AGGREGATE_AVG_PRICE(AVG_PRICE)[,] | LINEITEM.36:AGGREGATE_SUM_DISC_PRICE(SUM_DISC_PRICE)[,] | LINEITEM.39:AGGREGATE_SUM_BASE_PRICE(SUM_BASE_PRICE)[,] | LINEITEM.42:AGGREGATE_SUM_QTY(SUM_QTY)[,] | LINEITEM.45:AGGREGATE_AVG_QTY(AVG_QTY)[,]&gt;</text>
</g>
<!-- Node6&#45;&gt;Node5 -->
<g id="edge15" class="edge"><title>Node6&#45;&gt;Node5</title>
<path fill="none" stroke="black" d="M4305.06,-321.863C4309.3,-360.892 4308.65,-418.828 4276,-454 4257.38,-474.062 4218.24,-490.303 4169.8,-503.39"/>
<polygon fill="black" stroke="black" points="4168.78,-500.041 4159.99,-505.966 4170.55,-506.811 4168.78,-500.041"/>
<text text-anchor="middle" x="4456" y="-393.3" font-family="Times,serif" font-size="14.00" fill="darkgreen">&lt;(0,0) | IN_KV , &#160;, LINEITEM.11:L_DISCOUNT[,]&gt;</text>
</g>
<!-- Node7&#45;&gt;Node5 -->
<g id="edge16" class="edge"><title>Node7&#45;&gt;Node5</title>
<path fill="none" stroke="black" d="M3945.8,-321.831C3942.07,-327.694 3938.67,-333.835 3936,-340 3909.41,-401.439 3947.58,-434.011 3908,-488 3905.15,-491.887 3902,-495.569 3898.61,-499.054"/>
<polygon fill="black" stroke="black" points="3896.21,-496.514 3891.35,-505.932 3901.02,-501.596 3896.21,-496.514"/>
<text text-anchor="middle" x="4106" y="-393.3" font-family="Times,serif" font-size="14.00" fill="darkgreen">&lt;(0,0) | IN_KV , &#160;, LINEITEM.16:L_EXTENDEDPRICE[,]&gt;</text>
</g>
<!-- Node8&#45;&gt;Node5 -->
<g id="edge17" class="edge"><title>Node8&#45;&gt;Node5</title>
<path fill="none" stroke="black" d="M3680.71,-438.716C3668.45,-447.88 3657.57,-458.882 3650,-472 3646.45,-478.159 3646.23,-481.968 3650,-488 3652.29,-491.672 3654.85,-495.146 3657.64,-498.431"/>
<polygon fill="black" stroke="black" points="3655.13,-500.873 3664.54,-505.759 3660.23,-496.077 3655.13,-500.873"/>
<text text-anchor="middle" x="3779" y="-476.3" font-family="Times,serif" font-size="14.00" fill="darkgreen">&lt;(0,0) | IN_KV , &#160;, LINEITEM.24:L_TAX[,]&gt;</text>
</g>
<!-- Node9&#45;&gt;Node5 -->
<g id="edge18" class="edge"><title>Node9&#45;&gt;Node5</title>
<path fill="none" stroke="black" d="M3370.29,-321.701C3366.52,-327.496 3363.26,-333.654 3361,-340 3344.03,-387.741 3329.55,-414.273 3361,-454 3376.61,-473.723 3412.74,-489.948 3457.66,-503.161"/>
<polygon fill="black" stroke="black" points="3456.8,-506.555 3467.38,-505.935 3458.72,-499.824 3456.8,-506.555"/>
<text text-anchor="middle" x="3511" y="-393.3" font-family="Times,serif" font-size="14.00" fill="darkgreen">&lt;(0,0) | IN_KV , &#160;, LINEITEM.41:L_QUANTITY[,]&gt;</text>
</g>
<!-- Node10&#45;&gt;Node11 -->
<g id="edge19" class="edge"><title>Node10&#45;&gt;Node11</title>
<path fill="none" stroke="black" d="M5857,-739.568C5857,-752.957 5857,-768.023 5857,-782.084"/>
<polygon fill="black" stroke="black" points="5853.5,-782.107 5857,-792.107 5860.5,-782.107 5853.5,-782.107"/>
<text text-anchor="middle" x="7640.5" y="-762.3" font-family="Times,serif" font-size="14.00" fill="darkgreen">&lt;(0,0) | IN_KV , LINEITEM , LINEITEM.7:L_RETURNFLAG[,] | LINEITEM.8:L_LINESTATUS[,] | LINEITEM.9:AGGREGATE_COUNT(*)(COUNT_ORDER)[,] | LINEITEM.12:AGGREGATE_AVG_DISC(AVG_DISC)[,] | LINEITEM.25:AGGREGATE_SUM_CHARGE(SUM_CHARGE)[,] | LINEITEM.28:AGGREGATE_AVG_PRICE(AVG_PRICE)[,] | LINEITEM.36:AGGREGATE_SUM_DISC_PRICE(SUM_DISC_PRICE)[,] | LINEITEM.39:AGGREGATE_SUM_BASE_PRICE(SUM_BASE_PRICE)[,] | LINEITEM.42:AGGREGATE_SUM_QTY(SUM_QTY)[,] | LINEITEM.45:AGGREGATE_AVG_QTY(AVG_QTY)[,]&gt;</text>
</g>
</g>
</svg>
