<?xml version="1.0" encoding="UTF-8" standalone="no"?>
<!DOCTYPE svg PUBLIC "-//W3C//DTD SVG 1.1//EN"
 "http://www.w3.org/Graphics/SVG/1.1/DTD/svg11.dtd">
<!-- Generated by graphviz version 2.30.1 (20180420.1509)
 -->
<!-- Title: dag Pages: 1 -->
<svg width="1094pt" height="1364pt"
 viewBox="0.00 0.00 1094.00 1364.00" xmlns="http://www.w3.org/2000/svg" xmlns:xlink="http://www.w3.org/1999/xlink">
<g id="graph0" class="graph" transform="scale(1 1) rotate(0) translate(4 1360)">
<title>dag</title>
<polygon fill="white" stroke="white" points="-4,5 -4,-1360 1091,-1360 1091,5 -4,5"/>
<!-- buildrow -->
<g id="node1" class="node"><title>buildrow</title>
<polygon fill="none" stroke="black" points="687.5,-1355.5 142.5,-1355.5 142.5,-1182.5 687.5,-1182.5 687.5,-1355.5"/>
<text text-anchor="middle" x="415" y="-1340.3" font-family="Times,serif" font-size="14.00">BUILDROW</text>
<text text-anchor="middle" x="415" y="-1325.3" font-family="Times,serif" font-size="14.00">					l_returnflag,</text>
<text text-anchor="middle" x="415" y="-1310.3" font-family="Times,serif" font-size="14.00">					l_linestatus,</text>
<text text-anchor="middle" x="415" y="-1295.3" font-family="Times,serif" font-size="14.00">					sum(l_quantity) as sum_qty,</text>
<text text-anchor="middle" x="415" y="-1280.3" font-family="Times,serif" font-size="14.00">					sum(l_extendedprice) as sum_base_price,</text>
<text text-anchor="middle" x="415" y="-1265.3" font-family="Times,serif" font-size="14.00">					sum(l_extendedprice * (1 &#45; l_discount)) as sum_disc_price,</text>
<text text-anchor="middle" x="415" y="-1250.3" font-family="Times,serif" font-size="14.00">					sum(l_extendedprice * (1 &#45; l_discount) * (1 + l_tax)) as sum_charge,</text>
<text text-anchor="middle" x="415" y="-1235.3" font-family="Times,serif" font-size="14.00">					avg(l_quantity) as avg_qty,</text>
<text text-anchor="middle" x="415" y="-1220.3" font-family="Times,serif" font-size="14.00">					avg(l_extendedprice) as avg_price,</text>
<text text-anchor="middle" x="415" y="-1205.3" font-family="Times,serif" font-size="14.00">					avg(l_discount) as avg_disc,</text>
<text text-anchor="middle" x="415" y="-1190.3" font-family="Times,serif" font-size="14.00">					count(*) as count_order</text>
</g>
<!-- aggregation -->
<g id="node2" class="node"><title>aggregation</title>
<polygon fill="none" stroke="black" points="997.5,-451.5 452.5,-451.5 452.5,-308.5 997.5,-308.5 997.5,-451.5"/>
<text text-anchor="middle" x="725" y="-436.3" font-family="Times,serif" font-size="14.00">AGGREGATION</text>
<text text-anchor="middle" x="725" y="-421.3" font-family="Times,serif" font-size="14.00">					sum(l_quantity) as sum_qty,</text>
<text text-anchor="middle" x="725" y="-406.3" font-family="Times,serif" font-size="14.00">					sum(l_extendedprice) as sum_base_price,</text>
<text text-anchor="middle" x="725" y="-391.3" font-family="Times,serif" font-size="14.00">					sum(l_extendedprice * (1 &#45; l_discount)) as sum_disc_price,</text>
<text text-anchor="middle" x="725" y="-376.3" font-family="Times,serif" font-size="14.00">					sum(l_extendedprice * (1 &#45; l_discount) * (1 + l_tax)) as sum_charge,</text>
<text text-anchor="middle" x="725" y="-361.3" font-family="Times,serif" font-size="14.00">					avg(l_quantity) as avg_qty,</text>
<text text-anchor="middle" x="725" y="-346.3" font-family="Times,serif" font-size="14.00">					avg(l_extendedprice) as avg_price,</text>
<text text-anchor="middle" x="725" y="-331.3" font-family="Times,serif" font-size="14.00">					avg(l_discount) as avg_disc,</text>
<text text-anchor="middle" x="725" y="-316.3" font-family="Times,serif" font-size="14.00">					count(*) as count_order</text>
</g>
<!-- materialization -->
<g id="node6" class="node"><title>materialization</title>
<polygon fill="none" stroke="black" points="687.5,-677.5 142.5,-677.5 142.5,-504.5 687.5,-504.5 687.5,-677.5"/>
<text text-anchor="middle" x="415" y="-662.3" font-family="Times,serif" font-size="14.00">MATERIALIZATION</text>
<text text-anchor="middle" x="415" y="-647.3" font-family="Times,serif" font-size="14.00">					l_returnflag,</text>
<text text-anchor="middle" x="415" y="-632.3" font-family="Times,serif" font-size="14.00">					l_linestatus,</text>
<text text-anchor="middle" x="415" y="-617.3" font-family="Times,serif" font-size="14.00">					sum(l_quantity) as sum_qty,</text>
<text text-anchor="middle" x="415" y="-602.3" font-family="Times,serif" font-size="14.00">					sum(l_extendedprice) as sum_base_price,</text>
<text text-anchor="middle" x="415" y="-587.3" font-family="Times,serif" font-size="14.00">					sum(l_extendedprice * (1 &#45; l_discount)) as sum_disc_price,</text>
<text text-anchor="middle" x="415" y="-572.3" font-family="Times,serif" font-size="14.00">					sum(l_extendedprice * (1 &#45; l_discount) * (1 + l_tax)) as sum_charge,</text>
<text text-anchor="middle" x="415" y="-557.3" font-family="Times,serif" font-size="14.00">					avg(l_quantity) as avg_qty,</text>
<text text-anchor="middle" x="415" y="-542.3" font-family="Times,serif" font-size="14.00">					avg(l_extendedprice) as avg_price,</text>
<text text-anchor="middle" x="415" y="-527.3" font-family="Times,serif" font-size="14.00">					avg(l_discount) as avg_disc,</text>
<text text-anchor="middle" x="415" y="-512.3" font-family="Times,serif" font-size="14.00">					count(*) as count_order</text>
</g>
<!-- aggregation&#45;&gt;materialization -->
<g id="edge16" class="edge"><title>aggregation&#45;&gt;materialization</title>
<path fill="none" stroke="black" d="M620.048,-451.758C597.677,-466.84 573.748,-482.973 550.421,-498.7"/>
<polygon fill="black" stroke="black" points="548.193,-495.981 541.857,-504.474 552.106,-501.785 548.193,-495.981"/>
<text text-anchor="middle" x="625.5" y="-474.3" font-family="Times,serif" font-size="14.00" fill="darkgreen">all 8 agg cols</text>
</g>
<!-- group -->
<g id="node3" class="node"><title>group</title>
<polygon fill="none" stroke="black" points="434,-255.5 200,-255.5 200,-202.5 434,-202.5 434,-255.5"/>
<text text-anchor="middle" x="317" y="-240.3" font-family="Times,serif" font-size="14.00">GROUPBY</text>
<text text-anchor="middle" x="317" y="-225.3" font-family="Times,serif" font-size="14.00">					l_returnflag,</text>
<text text-anchor="middle" x="317" y="-210.3" font-family="Times,serif" font-size="14.00">					l_linestatus</text>
</g>
<!-- group&#45;&gt;aggregation -->
<g id="edge14" class="edge"><title>group&#45;&gt;aggregation</title>
<path fill="none" stroke="black" d="M351.768,-255.649C368.927,-267.389 390.337,-280.719 411,-290 422.42,-295.129 434.207,-300.036 446.213,-304.72"/>
<polygon fill="black" stroke="black" points="445.296,-308.117 455.886,-308.43 447.802,-301.581 445.296,-308.117"/>
<text text-anchor="middle" x="479" y="-278.3" font-family="Times,serif" font-size="14.00" fill="darkgreen">IN_GROUP LINEITEM</text>
</g>
<!-- group&#45;&gt;materialization -->
<g id="edge15" class="edge"><title>group&#45;&gt;materialization</title>
<path fill="none" stroke="black" d="M310.5,-255.815C301.088,-298.104 287.145,-384.219 310,-452 315.098,-467.119 322.586,-481.893 331.255,-495.817"/>
<polygon fill="black" stroke="black" points="328.421,-497.88 336.795,-504.372 334.297,-494.075 328.421,-497.88"/>
<text text-anchor="middle" x="376.5" y="-376.3" font-family="Times,serif" font-size="14.00" fill="darkgreen">l_returnflag, l_linestatus</text>
</g>
<!-- order -->
<g id="node4" class="node"><title>order</title>
<polygon fill="none" stroke="black" points="687.5,-1129.5 142.5,-1129.5 142.5,-956.5 687.5,-956.5 687.5,-1129.5"/>
<text text-anchor="middle" x="415" y="-1114.3" font-family="Times,serif" font-size="14.00">ORDERBY</text>
<text text-anchor="middle" x="415" y="-1099.3" font-family="Times,serif" font-size="14.00">					l_returnflag,</text>
<text text-anchor="middle" x="415" y="-1084.3" font-family="Times,serif" font-size="14.00">					l_linestatus,</text>
<text text-anchor="middle" x="415" y="-1069.3" font-family="Times,serif" font-size="14.00">					sum(l_quantity) as sum_qty,</text>
<text text-anchor="middle" x="415" y="-1054.3" font-family="Times,serif" font-size="14.00">					sum(l_extendedprice) as sum_base_price,</text>
<text text-anchor="middle" x="415" y="-1039.3" font-family="Times,serif" font-size="14.00">					sum(l_extendedprice * (1 &#45; l_discount)) as sum_disc_price,</text>
<text text-anchor="middle" x="415" y="-1024.3" font-family="Times,serif" font-size="14.00">					sum(l_extendedprice * (1 &#45; l_discount) * (1 + l_tax)) as sum_charge,</text>
<text text-anchor="middle" x="415" y="-1009.3" font-family="Times,serif" font-size="14.00">					avg(l_quantity) as avg_qty,</text>
<text text-anchor="middle" x="415" y="-994.3" font-family="Times,serif" font-size="14.00">					avg(l_extendedprice) as avg_price,</text>
<text text-anchor="middle" x="415" y="-979.3" font-family="Times,serif" font-size="14.00">					avg(l_discount) as avg_disc,</text>
<text text-anchor="middle" x="415" y="-964.3" font-family="Times,serif" font-size="14.00">					count(*) as count_order</text>
</g>
<!-- order&#45;&gt;buildrow -->
<g id="edge19" class="edge"><title>order&#45;&gt;buildrow</title>
<path fill="none" stroke="black" d="M415,-1129.64C415,-1143.56 415,-1158.05 415,-1172.18"/>
<polygon fill="black" stroke="black" points="411.5,-1172.4 415,-1182.4 418.5,-1172.4 411.5,-1172.4"/>
<text text-anchor="middle" x="443.5" y="-1152.3" font-family="Times,serif" font-size="14.00" fill="darkgreen">all 10 cols</text>
</g>
<!-- preoder -->
<g id="node5" class="node"><title>preoder</title>
<polygon fill="none" stroke="black" points="687.5,-903.5 142.5,-903.5 142.5,-730.5 687.5,-730.5 687.5,-903.5"/>
<text text-anchor="middle" x="415" y="-888.3" font-family="Times,serif" font-size="14.00">PREODER	</text>
<text text-anchor="middle" x="415" y="-873.3" font-family="Times,serif" font-size="14.00">					l_returnflag,</text>
<text text-anchor="middle" x="415" y="-858.3" font-family="Times,serif" font-size="14.00">					l_linestatus,</text>
<text text-anchor="middle" x="415" y="-843.3" font-family="Times,serif" font-size="14.00">					sum(l_quantity) as sum_qty,</text>
<text text-anchor="middle" x="415" y="-828.3" font-family="Times,serif" font-size="14.00">					sum(l_extendedprice) as sum_base_price,</text>
<text text-anchor="middle" x="415" y="-813.3" font-family="Times,serif" font-size="14.00">					sum(l_extendedprice * (1 &#45; l_discount)) as sum_disc_price,</text>
<text text-anchor="middle" x="415" y="-798.3" font-family="Times,serif" font-size="14.00">					sum(l_extendedprice * (1 &#45; l_discount) * (1 + l_tax)) as sum_charge,</text>
<text text-anchor="middle" x="415" y="-783.3" font-family="Times,serif" font-size="14.00">					avg(l_quantity) as avg_qty,</text>
<text text-anchor="middle" x="415" y="-768.3" font-family="Times,serif" font-size="14.00">					avg(l_extendedprice) as avg_price,</text>
<text text-anchor="middle" x="415" y="-753.3" font-family="Times,serif" font-size="14.00">					avg(l_discount) as avg_disc,</text>
<text text-anchor="middle" x="415" y="-738.3" font-family="Times,serif" font-size="14.00">					count(*) as count_order</text>
</g>
<!-- preoder&#45;&gt;order -->
<g id="edge18" class="edge"><title>preoder&#45;&gt;order</title>
<path fill="none" stroke="black" d="M415,-903.644C415,-917.558 415,-932.047 415,-946.185"/>
<polygon fill="black" stroke="black" points="411.5,-946.404 415,-956.404 418.5,-946.404 411.5,-946.404"/>
<text text-anchor="middle" x="443.5" y="-926.3" font-family="Times,serif" font-size="14.00" fill="darkgreen">all 10 cols</text>
</g>
<!-- materialization&#45;&gt;preoder -->
<g id="edge17" class="edge"><title>materialization&#45;&gt;preoder</title>
<path fill="none" stroke="black" d="M415,-677.644C415,-691.558 415,-706.047 415,-720.185"/>
<polygon fill="black" stroke="black" points="411.5,-720.404 415,-730.404 418.5,-720.404 411.5,-720.404"/>
<text text-anchor="middle" x="443.5" y="-700.3" font-family="Times,serif" font-size="14.00" fill="darkgreen">all 10 cols</text>
</g>
<!-- l_returnflag -->
<g id="node7" class="node"><title>l_returnflag</title>
<polygon fill="none" stroke="black" points="200,-128 0,-128 0,-90 200,-90 200,-128"/>
<text text-anchor="middle" x="100" y="-112.8" font-family="Times,serif" font-size="14.00">GETCOLUMN</text>
<text text-anchor="middle" x="100" y="-97.8" font-family="Times,serif" font-size="14.00">				l_returnflag</text>
</g>
<!-- l_returnflag&#45;&gt;group -->
<g id="edge8" class="edge"><title>l_returnflag&#45;&gt;group</title>
<path fill="none" stroke="black" d="M133.431,-128.179C167.363,-146.63 220.508,-175.53 260.902,-197.495"/>
<polygon fill="black" stroke="black" points="259.377,-200.65 269.834,-202.352 262.721,-194.5 259.377,-200.65"/>
<text text-anchor="middle" x="273" y="-161.3" font-family="Times,serif" font-size="14.00" fill="darkgreen">l_returnflag &#160;&#160;</text>
</g>
<!-- l_linestatus -->
<g id="node8" class="node"><title>l_linestatus</title>
<polygon fill="none" stroke="black" points="416,-128 218,-128 218,-90 416,-90 416,-128"/>
<text text-anchor="middle" x="317" y="-112.8" font-family="Times,serif" font-size="14.00">GETCOLUMN</text>
<text text-anchor="middle" x="317" y="-97.8" font-family="Times,serif" font-size="14.00">				l_linestatus</text>
</g>
<!-- l_linestatus&#45;&gt;group -->
<g id="edge9" class="edge"><title>l_linestatus&#45;&gt;group</title>
<path fill="none" stroke="black" d="M317,-128.179C317,-145.102 317,-170.814 317,-191.904"/>
<polygon fill="black" stroke="black" points="313.5,-192.133 317,-202.133 320.5,-192.133 313.5,-192.133"/>
<text text-anchor="middle" x="353.5" y="-161.3" font-family="Times,serif" font-size="14.00" fill="darkgreen">l_linestatus &#160;&#160;</text>
</g>
<!-- l_quantity -->
<g id="node9" class="node"><title>l_quantity</title>
<polygon fill="none" stroke="black" points="649.5,-184 458.5,-184 458.5,-146 649.5,-146 649.5,-184"/>
<text text-anchor="middle" x="554" y="-168.8" font-family="Times,serif" font-size="14.00">GETCOLUMN</text>
<text text-anchor="middle" x="554" y="-153.8" font-family="Times,serif" font-size="14.00">				l_quantity</text>
</g>
<!-- l_quantity&#45;&gt;aggregation -->
<g id="edge13" class="edge"><title>l_quantity&#45;&gt;aggregation</title>
<path fill="none" stroke="black" d="M562.007,-184.141C570.739,-202.982 585.79,-232.882 603,-256 614.394,-271.306 627.634,-286.579 641.104,-300.896"/>
<polygon fill="black" stroke="black" points="638.725,-303.473 648.16,-308.291 643.789,-298.64 638.725,-303.473"/>
<text text-anchor="middle" x="640" y="-225.3" font-family="Times,serif" font-size="14.00" fill="darkgreen">l_quantity &#160;&#160;&#160;&#160;</text>
</g>
<!-- l_extendedprice -->
<g id="node10" class="node"><title>l_extendedprice</title>
<polygon fill="none" stroke="black" points="877.5,-184 654.5,-184 654.5,-146 877.5,-146 877.5,-184"/>
<text text-anchor="middle" x="766" y="-168.8" font-family="Times,serif" font-size="14.00">GETCOLUMN</text>
<text text-anchor="middle" x="766" y="-153.8" font-family="Times,serif" font-size="14.00">				l_extendedprice</text>
</g>
<!-- l_extendedprice&#45;&gt;aggregation -->
<g id="edge10" class="edge"><title>l_extendedprice&#45;&gt;aggregation</title>
<path fill="none" stroke="black" d="M711.382,-184.101C704.079,-188.804 697.552,-194.68 693,-202 675.216,-230.598 678.095,-266.513 687.383,-298.504"/>
<polygon fill="black" stroke="black" points="684.122,-299.801 690.455,-308.294 690.8,-297.705 684.122,-299.801"/>
<text text-anchor="middle" x="736.5" y="-225.3" font-family="Times,serif" font-size="14.00" fill="darkgreen">l_extendedprice</text>
</g>
<!-- l_discount -->
<g id="node11" class="node"><title>l_discount</title>
<polygon fill="none" stroke="black" points="982.5,-248 789.5,-248 789.5,-210 982.5,-210 982.5,-248"/>
<text text-anchor="middle" x="886" y="-232.8" font-family="Times,serif" font-size="14.00">GETCOLUMN</text>
<text text-anchor="middle" x="886" y="-217.8" font-family="Times,serif" font-size="14.00">				l_discount</text>
</g>
<!-- l_discount&#45;&gt;aggregation -->
<g id="edge11" class="edge"><title>l_discount&#45;&gt;aggregation</title>
<path fill="none" stroke="black" d="M866.258,-248.27C851.536,-261.895 830.333,-281.518 808.813,-301.434"/>
<polygon fill="black" stroke="black" points="806.16,-299.121 801.198,-308.482 810.914,-304.258 806.16,-299.121"/>
<text text-anchor="middle" x="877" y="-278.3" font-family="Times,serif" font-size="14.00" fill="darkgreen">l_discount &#160;&#160;&#160;&#160;</text>
</g>
<!-- l_tax -->
<g id="node12" class="node"><title>l_tax</title>
<polygon fill="none" stroke="black" points="1086,-184 922,-184 922,-146 1086,-146 1086,-184"/>
<text text-anchor="middle" x="1004" y="-168.8" font-family="Times,serif" font-size="14.00">GETCOLUMN</text>
<text text-anchor="middle" x="1004" y="-153.8" font-family="Times,serif" font-size="14.00">				l_tax</text>
</g>
<!-- l_tax&#45;&gt;aggregation -->
<g id="edge12" class="edge"><title>l_tax&#45;&gt;aggregation</title>
<path fill="none" stroke="black" d="M1006.11,-184.091C1007.41,-203.72 1006.48,-235.053 991,-256 977.756,-273.918 961.259,-289.305 943.009,-302.502"/>
<polygon fill="black" stroke="black" points="940.719,-299.831 934.506,-308.413 944.715,-305.579 940.719,-299.831"/>
<text text-anchor="middle" x="1038.5" y="-225.3" font-family="Times,serif" font-size="14.00" fill="darkgreen">l_tax &#160;&#160;&#160;&#160;&#160;&#160;&#160;&#160;&#160;</text>
</g>
<!-- l_shipdate -->
<g id="node13" class="node"><title>l_shipdate</title>
<polygon fill="none" stroke="black" points="709,-38 399,-38 399,-0 709,-0 709,-38"/>
<text text-anchor="middle" x="554" y="-22.8" font-family="Times,serif" font-size="14.00">GETCOLUMN</text>
<text text-anchor="middle" x="554" y="-7.8" font-family="Times,serif" font-size="14.00">				l_shipdate &lt;= date &#39;1998&#45;09&#45;28&#39;</text>
</g>
<!-- l_shipdate&#45;&gt;l_returnflag -->
<g id="edge1" class="edge"><title>l_shipdate&#45;&gt;l_returnflag</title>
<path fill="none" stroke="black" d="M398.705,-36.5569C360.37,-41.7406 319.543,-48.1962 282,-56 242.76,-64.1564 199.601,-76.3435 165.163,-86.8695"/>
<polygon fill="black" stroke="black" points="163.756,-83.6407 155.232,-89.9326 165.819,-90.3298 163.756,-83.6407"/>
<text text-anchor="middle" x="314.5" y="-60.3" font-family="Times,serif" font-size="14.00" fill="darkgreen">LINEITEM</text>
</g>
<!-- l_shipdate&#45;&gt;l_linestatus -->
<g id="edge2" class="edge"><title>l_shipdate&#45;&gt;l_linestatus</title>
<path fill="none" stroke="black" d="M419.204,-38.1191C403.175,-42.7804 387.408,-48.6385 373,-56 360.322,-62.4779 348.432,-72.6622 338.898,-82.3074"/>
<polygon fill="black" stroke="black" points="336.103,-80.17 331.787,-89.8459 341.195,-84.9733 336.103,-80.17"/>
<text text-anchor="middle" x="405.5" y="-60.3" font-family="Times,serif" font-size="14.00" fill="darkgreen">LINEITEM</text>
</g>
<!-- l_shipdate&#45;&gt;l_extendedprice -->
<g id="edge3" class="edge"><title>l_shipdate&#45;&gt;l_extendedprice</title>
<path fill="none" stroke="black" d="M591.52,-38.1387C601.913,-43.5472 613.065,-49.7174 623,-56 664.164,-82.0302 708.458,-116.611 736.66,-139.551"/>
<polygon fill="black" stroke="black" points="734.568,-142.361 744.523,-145.985 739,-136.943 734.568,-142.361"/>
<text text-anchor="middle" x="679.5" y="-60.3" font-family="Times,serif" font-size="14.00" fill="darkgreen">LINEITEM</text>
</g>
<!-- l_shipdate&#45;&gt;l_quantity -->
<g id="edge4" class="edge"><title>l_shipdate&#45;&gt;l_quantity</title>
<path fill="none" stroke="black" d="M554,-38.2377C554,-62.799 554,-106.753 554,-135.646"/>
<polygon fill="black" stroke="black" points="550.5,-135.91 554,-145.91 557.5,-135.91 550.5,-135.91"/>
<text text-anchor="middle" x="586.5" y="-60.3" font-family="Times,serif" font-size="14.00" fill="darkgreen">LINEITEM</text>
</g>
<!-- l_shipdate&#45;&gt;l_discount -->
<g id="edge5" class="edge"><title>l_shipdate&#45;&gt;l_discount</title>
<path fill="none" stroke="black" d="M701.189,-38.0471C767.728,-54.5201 840.039,-85.9762 879,-146 889.146,-161.631 890.771,-182.62 889.923,-199.45"/>
<polygon fill="black" stroke="black" points="886.403,-199.558 889.074,-209.811 893.379,-200.13 886.403,-199.558"/>
<text text-anchor="middle" x="896.5" y="-105.3" font-family="Times,serif" font-size="14.00" fill="darkgreen">LINEITEM</text>
</g>
<!-- l_shipdate&#45;&gt;l_tax -->
<g id="edge6" class="edge"><title>l_shipdate&#45;&gt;l_tax</title>
<path fill="none" stroke="black" d="M709.463,-29.0043C786.549,-34.8423 870.765,-43.6836 907,-56 934.209,-65.2486 942.063,-69.3022 962,-90 974.946,-103.44 985.343,-121.636 992.554,-136.621"/>
<polygon fill="black" stroke="black" points="989.472,-138.296 996.827,-145.922 995.832,-135.374 989.472,-138.296"/>
<text text-anchor="middle" x="973.5" y="-60.3" font-family="Times,serif" font-size="14.00" fill="darkgreen">LINEITEM</text>
</g>
<!-- l_shipdate&#45;&gt;group -->
<g id="edge7" class="edge"><title>l_shipdate&#45;&gt;group</title>
<path fill="none" stroke="black" d="M536.084,-38.0855C522.13,-52.1939 502.29,-72.3003 485,-90 444.368,-131.595 439.923,-148.331 394,-184 388.232,-188.48 381.957,-192.811 375.562,-196.894"/>
<polygon fill="black" stroke="black" points="373.476,-194.068 366.803,-202.298 377.152,-200.026 373.476,-194.068"/>
<text text-anchor="middle" x="517.5" y="-105.3" font-family="Times,serif" font-size="14.00" fill="darkgreen">LINEITEM</text>
</g>
</g>
</svg>
